<mxfile host="app.diagrams.net" modified="2023-11-17T20:21:05.755Z" agent="Mozilla/5.0 (Windows NT 10.0; Win64; x64) AppleWebKit/537.36 (KHTML, like Gecko) Chrome/119.0.0.0 Safari/537.36 Edg/119.0.0.0" etag="Z7om4IrZa6Aqk0I88LjX" version="22.1.3" type="google">
  <diagram id="prtHgNgQTEPvFCAcTncT" name="Page-1">
    <mxGraphModel dx="2335" dy="639" grid="1" gridSize="10" guides="1" tooltips="1" connect="1" arrows="1" fold="1" page="1" pageScale="1" pageWidth="827" pageHeight="1169" math="0" shadow="0">
      <root>
        <mxCell id="0" />
        <mxCell id="1" parent="0" />
        <mxCell id="bmuI655vgJx-dzpE5qLp-1" value="&lt;font style=&quot;font-size: 14px;&quot;&gt;&lt;b&gt;Online Bus Booking Sevice&lt;/b&gt;&lt;/font&gt;" style="rounded=0;whiteSpace=wrap;html=1;" vertex="1" parent="1">
          <mxGeometry x="354" y="70" width="120" height="40" as="geometry" />
        </mxCell>
        <mxCell id="bmuI655vgJx-dzpE5qLp-2" value="3. Implementation" style="rounded=0;whiteSpace=wrap;html=1;" vertex="1" parent="1">
          <mxGeometry x="280" y="190" width="120" height="40" as="geometry" />
        </mxCell>
        <mxCell id="bmuI655vgJx-dzpE5qLp-3" value="" style="endArrow=none;html=1;rounded=0;" edge="1" parent="1">
          <mxGeometry width="50" height="50" relative="1" as="geometry">
            <mxPoint x="-30" y="140" as="sourcePoint" />
            <mxPoint x="820" y="140" as="targetPoint" />
          </mxGeometry>
        </mxCell>
        <mxCell id="bmuI655vgJx-dzpE5qLp-5" value="" style="endArrow=none;html=1;rounded=0;" edge="1" parent="1" target="bmuI655vgJx-dzpE5qLp-1">
          <mxGeometry width="50" height="50" relative="1" as="geometry">
            <mxPoint x="414" y="140" as="sourcePoint" />
            <mxPoint x="440" y="260" as="targetPoint" />
          </mxGeometry>
        </mxCell>
        <mxCell id="bmuI655vgJx-dzpE5qLp-6" value="1. Concept&lt;span style=&quot;white-space: pre;&quot;&gt;&#x9;&lt;/span&gt;" style="rounded=0;whiteSpace=wrap;html=1;" vertex="1" parent="1">
          <mxGeometry x="-90" y="190" width="120" height="40" as="geometry" />
        </mxCell>
        <mxCell id="bmuI655vgJx-dzpE5qLp-7" value="2. System Design" style="rounded=0;whiteSpace=wrap;html=1;" vertex="1" parent="1">
          <mxGeometry x="120" y="190" width="120" height="40" as="geometry" />
        </mxCell>
        <mxCell id="bmuI655vgJx-dzpE5qLp-8" value="4. Testing" style="rounded=0;whiteSpace=wrap;html=1;" vertex="1" parent="1">
          <mxGeometry x="440" y="190" width="120" height="40" as="geometry" />
        </mxCell>
        <mxCell id="bmuI655vgJx-dzpE5qLp-9" value="5. Delivery" style="rounded=0;whiteSpace=wrap;html=1;" vertex="1" parent="1">
          <mxGeometry x="600" y="190" width="120" height="40" as="geometry" />
        </mxCell>
        <mxCell id="bmuI655vgJx-dzpE5qLp-10" value="6. Support" style="rounded=0;whiteSpace=wrap;html=1;" vertex="1" parent="1">
          <mxGeometry x="760" y="190" width="120" height="40" as="geometry" />
        </mxCell>
        <mxCell id="bmuI655vgJx-dzpE5qLp-11" value="" style="endArrow=none;html=1;rounded=0;" edge="1" parent="1">
          <mxGeometry width="50" height="50" relative="1" as="geometry">
            <mxPoint x="-30.5" y="190" as="sourcePoint" />
            <mxPoint x="-30.5" y="140" as="targetPoint" />
          </mxGeometry>
        </mxCell>
        <mxCell id="bmuI655vgJx-dzpE5qLp-12" value="1.1 Planning" style="rounded=0;whiteSpace=wrap;html=1;" vertex="1" parent="1">
          <mxGeometry x="-140" y="260" width="80" height="30" as="geometry" />
        </mxCell>
        <mxCell id="bmuI655vgJx-dzpE5qLp-13" value="1.2&amp;nbsp; Requirement Gathering" style="rounded=0;whiteSpace=wrap;html=1;" vertex="1" parent="1">
          <mxGeometry x="-20" y="260" width="100" height="30" as="geometry" />
        </mxCell>
        <mxCell id="bmuI655vgJx-dzpE5qLp-14" value="1.1.1 WireFrame" style="rounded=0;whiteSpace=wrap;html=1;" vertex="1" parent="1">
          <mxGeometry x="-160" y="320" width="80" height="30" as="geometry" />
        </mxCell>
        <mxCell id="bmuI655vgJx-dzpE5qLp-15" value="1.1.2 Validate Concept" style="rounded=0;whiteSpace=wrap;html=1;" vertex="1" parent="1">
          <mxGeometry x="-160" y="380" width="80" height="30" as="geometry" />
        </mxCell>
        <mxCell id="bmuI655vgJx-dzpE5qLp-17" value="1.2.2 Non Func Requirement" style="rounded=0;whiteSpace=wrap;html=1;" vertex="1" parent="1">
          <mxGeometry y="380" width="100" height="30" as="geometry" />
        </mxCell>
        <mxCell id="bmuI655vgJx-dzpE5qLp-18" value="1.2.1 Func Requirement" style="rounded=0;whiteSpace=wrap;html=1;" vertex="1" parent="1">
          <mxGeometry y="320" width="100" height="30" as="geometry" />
        </mxCell>
        <mxCell id="bmuI655vgJx-dzpE5qLp-20" value="1.2.3 System Requirements" style="rounded=0;whiteSpace=wrap;html=1;" vertex="1" parent="1">
          <mxGeometry y="440" width="100" height="30" as="geometry" />
        </mxCell>
        <mxCell id="bmuI655vgJx-dzpE5qLp-21" value="1.2.4 Requirement Validation" style="rounded=0;whiteSpace=wrap;html=1;" vertex="1" parent="1">
          <mxGeometry y="500" width="110" height="30" as="geometry" />
        </mxCell>
        <mxCell id="bmuI655vgJx-dzpE5qLp-24" value="2.1&amp;nbsp; Hardware Specification" style="rounded=0;whiteSpace=wrap;html=1;" vertex="1" parent="1">
          <mxGeometry x="140" y="260" width="100" height="30" as="geometry" />
        </mxCell>
        <mxCell id="bmuI655vgJx-dzpE5qLp-25" value="2.3 Architectural Design&lt;span style=&quot;white-space: pre;&quot;&gt;&#x9;&lt;/span&gt;" style="rounded=0;whiteSpace=wrap;html=1;" vertex="1" parent="1">
          <mxGeometry x="140" y="380" width="100" height="30" as="geometry" />
        </mxCell>
        <mxCell id="bmuI655vgJx-dzpE5qLp-26" value="2.2&amp;nbsp; Software Specification" style="rounded=0;whiteSpace=wrap;html=1;" vertex="1" parent="1">
          <mxGeometry x="140" y="320" width="100" height="30" as="geometry" />
        </mxCell>
        <mxCell id="bmuI655vgJx-dzpE5qLp-27" value="2.4 Component Design" style="rounded=0;whiteSpace=wrap;html=1;" vertex="1" parent="1">
          <mxGeometry x="140" y="440" width="100" height="30" as="geometry" />
        </mxCell>
        <mxCell id="bmuI655vgJx-dzpE5qLp-31" value="3.1 Develop OBB Backend" style="rounded=0;whiteSpace=wrap;html=1;" vertex="1" parent="1">
          <mxGeometry x="300" y="260" width="100" height="30" as="geometry" />
        </mxCell>
        <mxCell id="bmuI655vgJx-dzpE5qLp-34" value="3.3 Develop Mobile App" style="rounded=0;whiteSpace=wrap;html=1;" vertex="1" parent="1">
          <mxGeometry x="300" y="380" width="100" height="30" as="geometry" />
        </mxCell>
        <mxCell id="bmuI655vgJx-dzpE5qLp-35" value="3.2 Develop Web App" style="rounded=0;whiteSpace=wrap;html=1;" vertex="1" parent="1">
          <mxGeometry x="300" y="320" width="100" height="30" as="geometry" />
        </mxCell>
        <mxCell id="bmuI655vgJx-dzpE5qLp-36" value="4.1 Integration Testing" style="rounded=0;whiteSpace=wrap;html=1;" vertex="1" parent="1">
          <mxGeometry x="460" y="260" width="100" height="30" as="geometry" />
        </mxCell>
        <mxCell id="bmuI655vgJx-dzpE5qLp-38" value="4.3 Bug Fix" style="rounded=0;whiteSpace=wrap;html=1;" vertex="1" parent="1">
          <mxGeometry x="460" y="380" width="100" height="30" as="geometry" />
        </mxCell>
        <mxCell id="bmuI655vgJx-dzpE5qLp-39" value="4.2 Acceptance Testing" style="rounded=0;whiteSpace=wrap;html=1;" vertex="1" parent="1">
          <mxGeometry x="460" y="320" width="100" height="30" as="geometry" />
        </mxCell>
        <mxCell id="bmuI655vgJx-dzpE5qLp-43" value="6.1 Maintenance" style="rounded=0;whiteSpace=wrap;html=1;" vertex="1" parent="1">
          <mxGeometry x="780" y="260" width="100" height="30" as="geometry" />
        </mxCell>
        <mxCell id="bmuI655vgJx-dzpE5qLp-44" value="6.2 Enhancement" style="rounded=0;whiteSpace=wrap;html=1;" vertex="1" parent="1">
          <mxGeometry x="780" y="320" width="100" height="30" as="geometry" />
        </mxCell>
        <mxCell id="bmuI655vgJx-dzpE5qLp-45" value="" style="endArrow=none;html=1;rounded=0;exitX=0.5;exitY=0;exitDx=0;exitDy=0;" edge="1" parent="1" source="bmuI655vgJx-dzpE5qLp-10">
          <mxGeometry width="50" height="50" relative="1" as="geometry">
            <mxPoint x="770" y="190" as="sourcePoint" />
            <mxPoint x="820" y="140" as="targetPoint" />
          </mxGeometry>
        </mxCell>
        <mxCell id="bmuI655vgJx-dzpE5qLp-47" value="" style="endArrow=none;html=1;rounded=0;exitX=0.5;exitY=0;exitDx=0;exitDy=0;" edge="1" parent="1" source="bmuI655vgJx-dzpE5qLp-7">
          <mxGeometry width="50" height="50" relative="1" as="geometry">
            <mxPoint x="170" y="190" as="sourcePoint" />
            <mxPoint x="180" y="140" as="targetPoint" />
          </mxGeometry>
        </mxCell>
        <mxCell id="bmuI655vgJx-dzpE5qLp-48" value="" style="endArrow=none;html=1;rounded=0;exitX=0.5;exitY=0;exitDx=0;exitDy=0;" edge="1" parent="1">
          <mxGeometry width="50" height="50" relative="1" as="geometry">
            <mxPoint x="339.5" y="190" as="sourcePoint" />
            <mxPoint x="339.5" y="140" as="targetPoint" />
          </mxGeometry>
        </mxCell>
        <mxCell id="bmuI655vgJx-dzpE5qLp-49" value="" style="endArrow=none;html=1;rounded=0;exitX=0.5;exitY=0;exitDx=0;exitDy=0;" edge="1" parent="1">
          <mxGeometry width="50" height="50" relative="1" as="geometry">
            <mxPoint x="499.5" y="190" as="sourcePoint" />
            <mxPoint x="499.5" y="140" as="targetPoint" />
          </mxGeometry>
        </mxCell>
        <mxCell id="bmuI655vgJx-dzpE5qLp-50" value="" style="endArrow=none;html=1;rounded=0;exitX=0.5;exitY=0;exitDx=0;exitDy=0;" edge="1" parent="1">
          <mxGeometry width="50" height="50" relative="1" as="geometry">
            <mxPoint x="659.5" y="190" as="sourcePoint" />
            <mxPoint x="659.5" y="140" as="targetPoint" />
          </mxGeometry>
        </mxCell>
        <mxCell id="bmuI655vgJx-dzpE5qLp-52" value="" style="endArrow=none;html=1;rounded=0;entryX=0.417;entryY=1;entryDx=0;entryDy=0;entryPerimeter=0;" edge="1" parent="1" target="bmuI655vgJx-dzpE5qLp-6">
          <mxGeometry width="50" height="50" relative="1" as="geometry">
            <mxPoint x="-40" y="280" as="sourcePoint" />
            <mxPoint x="-30" y="250" as="targetPoint" />
          </mxGeometry>
        </mxCell>
        <mxCell id="bmuI655vgJx-dzpE5qLp-53" value="" style="endArrow=none;html=1;rounded=0;exitX=0.997;exitY=0.68;exitDx=0;exitDy=0;exitPerimeter=0;" edge="1" parent="1" source="bmuI655vgJx-dzpE5qLp-12">
          <mxGeometry width="50" height="50" relative="1" as="geometry">
            <mxPoint x="-70" y="330" as="sourcePoint" />
            <mxPoint x="-20" y="280" as="targetPoint" />
          </mxGeometry>
        </mxCell>
        <mxCell id="bmuI655vgJx-dzpE5qLp-54" value="" style="endArrow=none;html=1;rounded=0;exitX=0.978;exitY=0.634;exitDx=0;exitDy=0;exitPerimeter=0;" edge="1" parent="1" source="bmuI655vgJx-dzpE5qLp-15">
          <mxGeometry width="50" height="50" relative="1" as="geometry">
            <mxPoint x="-70" y="400" as="sourcePoint" />
            <mxPoint x="-70" y="290" as="targetPoint" />
            <Array as="points">
              <mxPoint x="-70" y="399" />
            </Array>
          </mxGeometry>
        </mxCell>
        <mxCell id="bmuI655vgJx-dzpE5qLp-55" value="" style="endArrow=none;html=1;rounded=0;" edge="1" parent="1">
          <mxGeometry width="50" height="50" relative="1" as="geometry">
            <mxPoint x="-80" y="334.8" as="sourcePoint" />
            <mxPoint x="-70" y="334.8" as="targetPoint" />
            <Array as="points">
              <mxPoint x="-70" y="334.8" />
            </Array>
          </mxGeometry>
        </mxCell>
        <mxCell id="bmuI655vgJx-dzpE5qLp-57" value="" style="endArrow=none;html=1;rounded=0;" edge="1" parent="1">
          <mxGeometry width="50" height="50" relative="1" as="geometry">
            <mxPoint x="-10" y="510" as="sourcePoint" />
            <mxPoint x="-10" y="290" as="targetPoint" />
          </mxGeometry>
        </mxCell>
        <mxCell id="bmuI655vgJx-dzpE5qLp-58" value="" style="endArrow=none;html=1;rounded=0;" edge="1" parent="1">
          <mxGeometry width="50" height="50" relative="1" as="geometry">
            <mxPoint x="-10" y="334.86" as="sourcePoint" />
            <mxPoint y="334.86" as="targetPoint" />
            <Array as="points">
              <mxPoint y="334.86" />
            </Array>
          </mxGeometry>
        </mxCell>
        <mxCell id="bmuI655vgJx-dzpE5qLp-59" value="" style="endArrow=none;html=1;rounded=0;" edge="1" parent="1">
          <mxGeometry width="50" height="50" relative="1" as="geometry">
            <mxPoint x="-10" y="510" as="sourcePoint" />
            <mxPoint y="514.86" as="targetPoint" />
            <Array as="points">
              <mxPoint x="-10" y="520" />
              <mxPoint y="520" />
            </Array>
          </mxGeometry>
        </mxCell>
        <mxCell id="bmuI655vgJx-dzpE5qLp-60" value="" style="endArrow=none;html=1;rounded=0;" edge="1" parent="1">
          <mxGeometry width="50" height="50" relative="1" as="geometry">
            <mxPoint x="-10" y="454.86" as="sourcePoint" />
            <mxPoint y="454.86" as="targetPoint" />
            <Array as="points">
              <mxPoint y="454.86" />
            </Array>
          </mxGeometry>
        </mxCell>
        <mxCell id="bmuI655vgJx-dzpE5qLp-61" value="" style="endArrow=none;html=1;rounded=0;" edge="1" parent="1">
          <mxGeometry width="50" height="50" relative="1" as="geometry">
            <mxPoint x="-10" y="394.86" as="sourcePoint" />
            <mxPoint y="394.86" as="targetPoint" />
            <Array as="points">
              <mxPoint y="394.86" />
            </Array>
          </mxGeometry>
        </mxCell>
        <mxCell id="bmuI655vgJx-dzpE5qLp-62" value="" style="endArrow=none;html=1;rounded=0;" edge="1" parent="1">
          <mxGeometry width="50" height="50" relative="1" as="geometry">
            <mxPoint x="130" y="460" as="sourcePoint" />
            <mxPoint x="130" y="230" as="targetPoint" />
          </mxGeometry>
        </mxCell>
        <mxCell id="bmuI655vgJx-dzpE5qLp-64" value="" style="endArrow=none;html=1;rounded=0;" edge="1" parent="1">
          <mxGeometry width="50" height="50" relative="1" as="geometry">
            <mxPoint x="130" y="334.71000000000004" as="sourcePoint" />
            <mxPoint x="140" y="334.71000000000004" as="targetPoint" />
            <Array as="points">
              <mxPoint x="140" y="334.71000000000004" />
            </Array>
          </mxGeometry>
        </mxCell>
        <mxCell id="bmuI655vgJx-dzpE5qLp-65" value="" style="endArrow=none;html=1;rounded=0;" edge="1" parent="1">
          <mxGeometry width="50" height="50" relative="1" as="geometry">
            <mxPoint x="130" y="394.71000000000004" as="sourcePoint" />
            <mxPoint x="140" y="394.71000000000004" as="targetPoint" />
            <Array as="points">
              <mxPoint x="140" y="394.71000000000004" />
            </Array>
          </mxGeometry>
        </mxCell>
        <mxCell id="bmuI655vgJx-dzpE5qLp-66" value="" style="endArrow=none;html=1;rounded=0;" edge="1" parent="1">
          <mxGeometry width="50" height="50" relative="1" as="geometry">
            <mxPoint x="130" y="460" as="sourcePoint" />
            <mxPoint x="140" y="460" as="targetPoint" />
            <Array as="points">
              <mxPoint x="140" y="460" />
            </Array>
          </mxGeometry>
        </mxCell>
        <mxCell id="bmuI655vgJx-dzpE5qLp-67" value="" style="endArrow=none;html=1;rounded=0;" edge="1" parent="1">
          <mxGeometry width="50" height="50" relative="1" as="geometry">
            <mxPoint x="130" y="274.71000000000004" as="sourcePoint" />
            <mxPoint x="140" y="274.71000000000004" as="targetPoint" />
            <Array as="points">
              <mxPoint x="140" y="274.71000000000004" />
            </Array>
          </mxGeometry>
        </mxCell>
        <mxCell id="bmuI655vgJx-dzpE5qLp-68" value="" style="endArrow=none;html=1;rounded=0;" edge="1" parent="1">
          <mxGeometry width="50" height="50" relative="1" as="geometry">
            <mxPoint x="290" y="400" as="sourcePoint" />
            <mxPoint x="290" y="230" as="targetPoint" />
          </mxGeometry>
        </mxCell>
        <mxCell id="bmuI655vgJx-dzpE5qLp-69" value="" style="endArrow=none;html=1;rounded=0;" edge="1" parent="1">
          <mxGeometry width="50" height="50" relative="1" as="geometry">
            <mxPoint x="290" y="274.71000000000004" as="sourcePoint" />
            <mxPoint x="300" y="274.71000000000004" as="targetPoint" />
            <Array as="points">
              <mxPoint x="300" y="274.71000000000004" />
            </Array>
          </mxGeometry>
        </mxCell>
        <mxCell id="bmuI655vgJx-dzpE5qLp-70" value="" style="endArrow=none;html=1;rounded=0;" edge="1" parent="1">
          <mxGeometry width="50" height="50" relative="1" as="geometry">
            <mxPoint x="290" y="334.71000000000004" as="sourcePoint" />
            <mxPoint x="300" y="334.71000000000004" as="targetPoint" />
            <Array as="points">
              <mxPoint x="300" y="334.71000000000004" />
            </Array>
          </mxGeometry>
        </mxCell>
        <mxCell id="bmuI655vgJx-dzpE5qLp-71" value="" style="endArrow=none;html=1;rounded=0;" edge="1" parent="1">
          <mxGeometry width="50" height="50" relative="1" as="geometry">
            <mxPoint x="290" y="400.00000000000006" as="sourcePoint" />
            <mxPoint x="300" y="400.00000000000006" as="targetPoint" />
            <Array as="points">
              <mxPoint x="300" y="400.00000000000006" />
            </Array>
          </mxGeometry>
        </mxCell>
        <mxCell id="bmuI655vgJx-dzpE5qLp-72" value="" style="endArrow=none;html=1;rounded=0;" edge="1" parent="1">
          <mxGeometry width="50" height="50" relative="1" as="geometry">
            <mxPoint x="450" y="400" as="sourcePoint" />
            <mxPoint x="450" y="230" as="targetPoint" />
          </mxGeometry>
        </mxCell>
        <mxCell id="bmuI655vgJx-dzpE5qLp-73" value="" style="endArrow=none;html=1;rounded=0;" edge="1" parent="1">
          <mxGeometry width="50" height="50" relative="1" as="geometry">
            <mxPoint x="450" y="280.00000000000006" as="sourcePoint" />
            <mxPoint x="460" y="280.00000000000006" as="targetPoint" />
            <Array as="points">
              <mxPoint x="460" y="280.00000000000006" />
            </Array>
          </mxGeometry>
        </mxCell>
        <mxCell id="bmuI655vgJx-dzpE5qLp-74" value="" style="endArrow=none;html=1;rounded=0;" edge="1" parent="1">
          <mxGeometry width="50" height="50" relative="1" as="geometry">
            <mxPoint x="450" y="334.71000000000004" as="sourcePoint" />
            <mxPoint x="460" y="334.71000000000004" as="targetPoint" />
            <Array as="points">
              <mxPoint x="460" y="334.71000000000004" />
            </Array>
          </mxGeometry>
        </mxCell>
        <mxCell id="bmuI655vgJx-dzpE5qLp-75" value="" style="endArrow=none;html=1;rounded=0;" edge="1" parent="1">
          <mxGeometry width="50" height="50" relative="1" as="geometry">
            <mxPoint x="450" y="400.00000000000006" as="sourcePoint" />
            <mxPoint x="460" y="400.00000000000006" as="targetPoint" />
            <Array as="points">
              <mxPoint x="460" y="400.00000000000006" />
            </Array>
          </mxGeometry>
        </mxCell>
        <mxCell id="bmuI655vgJx-dzpE5qLp-76" value="" style="endArrow=none;html=1;rounded=0;" edge="1" parent="1">
          <mxGeometry width="50" height="50" relative="1" as="geometry">
            <mxPoint x="770" y="340" as="sourcePoint" />
            <mxPoint x="770" y="230" as="targetPoint" />
          </mxGeometry>
        </mxCell>
        <mxCell id="bmuI655vgJx-dzpE5qLp-77" value="" style="endArrow=none;html=1;rounded=0;" edge="1" parent="1">
          <mxGeometry width="50" height="50" relative="1" as="geometry">
            <mxPoint x="460" y="290.00000000000006" as="sourcePoint" />
            <mxPoint x="470" y="290.00000000000006" as="targetPoint" />
            <Array as="points">
              <mxPoint x="470" y="290.00000000000006" />
            </Array>
          </mxGeometry>
        </mxCell>
        <mxCell id="bmuI655vgJx-dzpE5qLp-78" value="" style="endArrow=none;html=1;rounded=0;" edge="1" parent="1">
          <mxGeometry width="50" height="50" relative="1" as="geometry">
            <mxPoint x="770" y="274.71000000000004" as="sourcePoint" />
            <mxPoint x="780" y="274.71000000000004" as="targetPoint" />
            <Array as="points">
              <mxPoint x="780" y="274.71000000000004" />
            </Array>
          </mxGeometry>
        </mxCell>
        <mxCell id="bmuI655vgJx-dzpE5qLp-79" value="" style="endArrow=none;html=1;rounded=0;" edge="1" parent="1">
          <mxGeometry width="50" height="50" relative="1" as="geometry">
            <mxPoint x="770" y="340.00000000000006" as="sourcePoint" />
            <mxPoint x="780" y="340.00000000000006" as="targetPoint" />
            <Array as="points">
              <mxPoint x="780" y="340.00000000000006" />
            </Array>
          </mxGeometry>
        </mxCell>
        <mxCell id="bmuI655vgJx-dzpE5qLp-83" value="." style="text;strokeColor=none;fillColor=none;align=left;verticalAlign=middle;spacingLeft=4;spacingRight=4;overflow=hidden;points=[[0,0.5],[1,0.5]];portConstraint=eastwest;rotatable=0;whiteSpace=wrap;html=1;" vertex="1" parent="1">
          <mxGeometry x="-190" y="530" width="80" height="30" as="geometry" />
        </mxCell>
        <mxCell id="bmuI655vgJx-dzpE5qLp-85" value="." style="text;strokeColor=none;fillColor=none;align=left;verticalAlign=middle;spacingLeft=4;spacingRight=4;overflow=hidden;points=[[0,0.5],[1,0.5]];portConstraint=eastwest;rotatable=0;whiteSpace=wrap;html=1;" vertex="1" parent="1">
          <mxGeometry x="-200" y="40" width="80" height="30" as="geometry" />
        </mxCell>
        <mxCell id="bmuI655vgJx-dzpE5qLp-86" value="." style="text;strokeColor=none;fillColor=none;align=left;verticalAlign=middle;spacingLeft=4;spacingRight=4;overflow=hidden;points=[[0,0.5],[1,0.5]];portConstraint=eastwest;rotatable=0;whiteSpace=wrap;html=1;" vertex="1" parent="1">
          <mxGeometry x="840" y="40" width="80" height="30" as="geometry" />
        </mxCell>
      </root>
    </mxGraphModel>
  </diagram>
</mxfile>
